<?xml version="1.0" encoding="UTF-8"?><svg xmlns="http://www.w3.org/2000/svg" viewBox="0 0 106.06 106"><defs><style>.cls-1{fill:#fff;}.cls-2{fill:#321446;}.cls-3{fill:#f37723;}</style></defs><g id="Layer_10_copy"><path class="cls-2" d="M53.34,2.33C25.14,2.17,2.4,24.91,2.36,52.92c-.05,28.01,22.64,50.72,50.65,50.74,27.95,.03,50.68-22.68,50.69-50.64-.03-28.01-22.58-50.54-50.36-50.7Z"/><path class="cls-2" d="M53.29,10.42c-23.69-.13-42.81,18.98-42.85,42.52-.04,23.54,19.03,42.62,42.57,42.64,23.49,.02,42.59-19.06,42.6-42.56-.02-23.54-18.98-42.47-42.33-42.61Z"/></g><g id="FAQ_SCAiLX"><path class="cls-2" d="M53.37,2.33C25.18,2.17,2.44,24.91,2.39,52.92c-.05,28.01,22.64,50.72,50.65,50.74,27.95,.03,50.68-22.68,50.69-50.64-.03-28.01-22.58-50.54-50.36-50.7Z"/><g><path class="cls-3" d="M93.37,46.71L59.35,12.7c-3.07-3.07-8.12-3.03-11.24,.08l-13.49,13.49,8.25,8.25c8.03-5.12,18.24-3.59,25.25,3.42s8.54,17.22,3.42,25.25l8.25,8.25,13.49-13.49c3.11-3.11,3.15-8.17,.08-11.24Z"/><path class="cls-1" d="M38,68.06c-7.17-7.17-8.58-17.71-3.07-25.79l-8.16-8.16-13.94,13.94c-3.11,3.11-3.15,8.17-.08,11.24l34.02,34.02c3.07,3.07,8.12,3.03,11.24-.08l13.94-13.94-8.16-8.16c-8.09,5.51-18.62,4.11-25.79-3.07Z"/><g><g><path class="cls-1" d="M43.12,58.65c3.5,0,8.07-9.34,7.02-10.37-7.48-7.36-5.51-8.8-7.2-8.8-1.69,0,.28,1.44-7.2,8.8-1.05,1.03,3.52,10.37,7.02,10.37h.35Z"/><path class="cls-1" d="M62.89,58.31c3.5,0,8.07-9.34,7.02-10.37-7.48-7.36-5.51-8.8-7.2-8.8-1.69,0,.28,1.44-7.2,8.8-1.05,1.03,3.52,10.37,7.02,10.37h.35Z"/></g><path class="cls-1" d="M53.34,70.59c3.5,0,8.07-9.34,7.02-10.37-7.48-7.36-5.51-8.8-7.2-8.8-1.69,0,.28,1.44-7.2,8.8-1.05,1.03,3.52,10.37,7.02,10.37h.35Z"/></g></g></g></svg>