<?xml version="1.0" encoding="utf-8"?>
<!-- Generator: Adobe Illustrator 25.4.1, SVG Export Plug-In . SVG Version: 6.00 Build 0)  -->
<svg version="1.1" id="Layer_1" xmlns="http://www.w3.org/2000/svg" xmlns:xlink="http://www.w3.org/1999/xlink" x="0px" y="0px"
	 viewBox="0 0 576 216" style="enable-background: new 0 0 576 216" xml:space="preserve">
<style type="text/css">
	.st0{fill:#FFFFFF;}
	.st1{fill:#75C044;}
	.st2{fill:none;stroke:#FFFFFF;stroke-width:2.0749;stroke-miterlimit:10;}
</style>
<g>
	<path class="st0" d="M 350.9 166.1 c 0.4 -0.4 0.9 -0.6 1.5 -0.8 c 0.6 -0.2 1.1 -0.3 1.7 -0.3 c 0.6 0 1.1 0.1 1.5 0.2 c 0.4 0.1 0.8 0.3 1 0.6 c 0.3 0.2 0.5 0.5 0.6 0.8 c 0.1 0.3 0.2 0.6 0.2 0.9 v 3.8 c 0 0.3 0 0.5 0 0.7 c 0 0.2 0 0.4 0.1 0.6 h -1.3 c 0 -0.4 -0.1 -0.8 -0.1 -1.1 h 0 c -0.3 0.5 -0.7 0.8 -1.2 1 c -0.5 0.2 -1 0.3 -1.6 0.3 c -0.4 0 -0.7 0 -1.1 -0.1 c -0.3 -0.1 -0.6 -0.2 -0.9 -0.4 c -0.3 -0.2 -0.5 -0.4 -0.6 -0.7 c -0.1 -0.3 -0.2 -0.6 -0.2 -1 c 0 -0.5 0.1 -0.9 0.3 -1.2 c 0.2 -0.3 0.5 -0.6 0.9 -0.8 c 0.4 -0.2 0.9 -0.4 1.4 -0.4 s 1.1 -0.1 1.7 -0.1 h 1.1 v -0.3 c 0 -0.2 0 -0.4 -0.1 -0.6 c -0.1 -0.2 -0.2 -0.4 -0.4 -0.5 c -0.2 -0.2 -0.4 -0.3 -0.6 -0.4 c -0.2 -0.1 -0.5 -0.1 -0.8 -0.1 c -0.3 0 -0.5 0 -0.8 0.1 c -0.2 0.1 -0.4 0.1 -0.6 0.2 c -0.2 0.1 -0.3 0.2 -0.5 0.3 c -0.1 0.1 -0.3 0.2 -0.4 0.3 L 350.9 166.1 z M 355.2 169.1 c -0.4 0 -0.7 0 -1.1 0.1 c -0.4 0 -0.7 0.1 -1 0.2 c -0.3 0.1 -0.6 0.3 -0.8 0.4 s -0.3 0.4 -0.3 0.7 c 0 0.4 0.2 0.7 0.5 0.9 c 0.3 0.2 0.7 0.3 1.3 0.3 c 0.4 0 0.8 -0.1 1.1 -0.2 c 0.3 -0.1 0.5 -0.3 0.7 -0.5 c 0.2 -0.2 0.3 -0.4 0.4 -0.7 c 0.1 -0.3 0.1 -0.5 0.1 -0.8 v -0.5 H 355.2 z"/>
	<path class="st0" d="M 359.4 165.2 h 1.5 v 1.2 h 0 c 0.2 -0.4 0.5 -0.7 1 -1 c 0.5 -0.2 1 -0.4 1.6 -0.4 c 0.4 0 0.7 0.1 1.1 0.2 c 0.4 0.1 0.7 0.3 0.9 0.5 c 0.3 0.2 0.5 0.5 0.6 0.9 c 0.2 0.4 0.2 0.8 0.2 1.3 v 4.8 H 365 v -4.5 c 0 -0.3 -0.1 -0.6 -0.2 -0.9 c -0.1 -0.2 -0.2 -0.5 -0.4 -0.6 c -0.2 -0.2 -0.4 -0.3 -0.6 -0.3 c -0.2 -0.1 -0.4 -0.1 -0.7 -0.1 c -0.3 0 -0.6 0 -0.9 0.1 c -0.3 0.1 -0.5 0.2 -0.7 0.5 c -0.2 0.2 -0.4 0.5 -0.5 0.8 c -0.1 0.3 -0.2 0.7 -0.2 1.1 v 3.9 h -1.5 V 165.2 z"/>
	<path class="st0" d="M 372.8 162.5 c 0 -0.3 0.1 -0.5 0.3 -0.7 c 0.2 -0.2 0.5 -0.3 0.8 -0.3 c 0.3 0 0.6 0.1 0.8 0.3 c 0.2 0.2 0.3 0.5 0.3 0.7 c 0 0.3 -0.1 0.5 -0.3 0.7 c -0.2 0.2 -0.5 0.3 -0.8 0.3 c -0.3 0 -0.6 -0.1 -0.8 -0.3 C 372.9 163 372.8 162.8 372.8 162.5 z M 373.1 165.2 h 1.5 v 7.5 h -1.5 V 165.2 z"/>
	<path class="st0" d="M 376.8 165.2 h 1.5 v 1.2 h 0 c 0.2 -0.4 0.5 -0.7 1 -1 c 0.5 -0.2 1 -0.4 1.6 -0.4 c 0.4 0 0.7 0.1 1.1 0.2 c 0.4 0.1 0.7 0.3 0.9 0.5 c 0.3 0.2 0.5 0.5 0.6 0.9 c 0.2 0.4 0.2 0.8 0.2 1.3 v 4.8 h -1.5 v -4.5 c 0 -0.3 -0.1 -0.6 -0.2 -0.9 c -0.1 -0.2 -0.2 -0.5 -0.4 -0.6 c -0.2 -0.2 -0.4 -0.3 -0.6 -0.3 c -0.2 -0.1 -0.4 -0.1 -0.7 -0.1 c -0.3 0 -0.6 0 -0.9 0.1 c -0.3 0.1 -0.5 0.2 -0.7 0.5 c -0.2 0.2 -0.4 0.5 -0.5 0.8 c -0.1 0.3 -0.2 0.7 -0.2 1.1 v 3.9 h -1.5 V 165.2 z"/>
	<path class="st0" d="M 388.9 162.9 H 385 v -1.4 h 9.3 v 1.4 h -3.8 v 9.8 h -1.6 V 162.9 z"/>
	<path class="st0" d="M 395.8 161.5 h 7.7 v 1.4 h -6.1 v 3.4 h 5.7 v 1.4 h -5.7 v 3.6 h 6.4 v 1.4 h -8 V 161.5 z"/>
	<path class="st0" d="M 406.3 170.4 c 0.3 0.4 0.7 0.7 1.1 0.9 c 0.5 0.2 0.9 0.3 1.4 0.3 c 0.3 0 0.5 0 0.8 -0.1 c 0.3 -0.1 0.5 -0.2 0.8 -0.4 c 0.2 -0.2 0.4 -0.4 0.6 -0.6 c 0.1 -0.2 0.2 -0.5 0.2 -0.8 c 0 -0.4 -0.1 -0.8 -0.4 -1 c -0.3 -0.2 -0.7 -0.4 -1.1 -0.6 c -0.4 -0.2 -0.9 -0.3 -1.4 -0.4 c -0.5 -0.1 -1 -0.3 -1.4 -0.6 c -0.4 -0.3 -0.8 -0.6 -1.1 -1 c -0.3 -0.4 -0.4 -1 -0.4 -1.7 c 0 -0.3 0.1 -0.7 0.2 -1 c 0.2 -0.4 0.4 -0.7 0.7 -1 c 0.3 -0.3 0.7 -0.6 1.3 -0.8 s 1.1 -0.3 1.8 -0.3 c 0.7 0 1.3 0.1 1.9 0.3 c 0.6 0.2 1.1 0.5 1.6 1 l -1.3 1.1 c -0.2 -0.3 -0.5 -0.5 -0.9 -0.7 c -0.4 -0.2 -0.8 -0.3 -1.3 -0.3 c -0.5 0 -0.8 0.1 -1.1 0.2 c -0.3 0.1 -0.5 0.3 -0.7 0.4 c -0.2 0.2 -0.3 0.4 -0.4 0.6 c -0.1 0.2 -0.1 0.4 -0.1 0.6 c 0 0.5 0.1 0.8 0.4 1.1 c 0.3 0.3 0.7 0.5 1.1 0.6 c 0.4 0.2 0.9 0.3 1.4 0.4 c 0.5 0.1 1 0.3 1.4 0.5 c 0.4 0.2 0.8 0.5 1.1 0.9 c 0.3 0.4 0.4 0.9 0.4 1.6 c 0 0.5 -0.1 1 -0.3 1.5 c -0.2 0.4 -0.5 0.8 -0.9 1.1 c -0.4 0.3 -0.8 0.5 -1.3 0.7 c -0.5 0.2 -1 0.2 -1.6 0.2 c -0.8 0 -1.5 -0.1 -2.2 -0.4 c -0.7 -0.3 -1.2 -0.6 -1.6 -1.2 L 406.3 170.4 z"/>
	<path class="st0" d="M 417.6 162.9 h -3.8 v -1.4 h 9.3 v 1.4 h -3.8 v 9.8 h -1.6 V 162.9 z"/>
	<path class="st0" d="M 437.3 163.9 c -0.3 -0.4 -0.8 -0.7 -1.3 -1 c -0.5 -0.2 -1.1 -0.3 -1.6 -0.3 c -0.7 0 -1.3 0.1 -1.8 0.4 c -0.5 0.2 -1 0.6 -1.4 1 c -0.4 0.4 -0.7 0.9 -0.9 1.5 c -0.2 0.6 -0.3 1.2 -0.3 1.8 c 0 0.6 0.1 1.2 0.3 1.7 c 0.2 0.5 0.5 1 0.9 1.4 s 0.8 0.7 1.4 1 c 0.5 0.2 1.2 0.3 1.9 0.3 c 0.7 0 1.3 -0.1 1.8 -0.4 c 0.5 -0.3 1 -0.6 1.3 -1.1 l 1.4 1 c -0.1 0.1 -0.2 0.3 -0.5 0.5 c -0.2 0.2 -0.5 0.4 -0.9 0.7 c -0.4 0.2 -0.8 0.4 -1.3 0.6 c -0.5 0.2 -1.1 0.2 -1.8 0.2 c -0.9 0 -1.8 -0.2 -2.6 -0.5 c -0.8 -0.3 -1.4 -0.8 -1.9 -1.3 c -0.5 -0.6 -0.9 -1.2 -1.2 -1.9 s -0.4 -1.4 -0.4 -2.1 c 0 -0.9 0.2 -1.7 0.5 -2.4 c 0.3 -0.7 0.7 -1.4 1.3 -1.9 c 0.5 -0.5 1.2 -1 2 -1.2 c 0.8 -0.3 1.6 -0.4 2.5 -0.4 c 0.8 0 1.6 0.1 2.3 0.4 c 0.8 0.3 1.4 0.7 1.9 1.3 L 437.3 163.9 z"/>
	<path class="st0" d="M 439.9 168.9 c 0 -0.6 0.1 -1.1 0.3 -1.5 c 0.2 -0.5 0.5 -0.9 0.9 -1.3 c 0.4 -0.4 0.8 -0.6 1.3 -0.8 c 0.5 -0.2 1.1 -0.3 1.7 -0.3 c 0.6 0 1.2 0.1 1.7 0.3 c 0.5 0.2 1 0.5 1.3 0.8 c 0.4 0.4 0.7 0.8 0.9 1.3 s 0.3 1 0.3 1.5 c 0 0.6 -0.1 1.1 -0.3 1.5 c -0.2 0.5 -0.5 0.9 -0.9 1.3 c -0.4 0.4 -0.8 0.6 -1.3 0.8 c -0.5 0.2 -1.1 0.3 -1.7 0.3 c -0.6 0 -1.2 -0.1 -1.7 -0.3 c -0.5 -0.2 -1 -0.5 -1.3 -0.8 c -0.4 -0.4 -0.7 -0.8 -0.9 -1.3 C 440 170 439.9 169.5 439.9 168.9 z M 441.5 168.9 c 0 0.4 0.1 0.7 0.2 1.1 c 0.1 0.3 0.3 0.6 0.5 0.8 c 0.2 0.2 0.5 0.4 0.8 0.5 c 0.3 0.1 0.7 0.2 1.1 0.2 c 0.4 0 0.8 -0.1 1.1 -0.2 c 0.3 -0.1 0.6 -0.3 0.8 -0.5 c 0.2 -0.2 0.4 -0.5 0.5 -0.8 c 0.1 -0.3 0.2 -0.7 0.2 -1.1 c 0 -0.4 -0.1 -0.7 -0.2 -1.1 c -0.1 -0.3 -0.3 -0.6 -0.5 -0.8 c -0.2 -0.2 -0.5 -0.4 -0.8 -0.5 c -0.3 -0.1 -0.7 -0.2 -1.1 -0.2 c -0.4 0 -0.8 0.1 -1.1 0.2 c -0.3 0.1 -0.6 0.3 -0.8 0.5 c -0.2 0.2 -0.4 0.5 -0.5 0.8 C 441.6 168.2 441.5 168.6 441.5 168.9 z"/>
	<path class="st0" d="M 450.1 165.2 h 1.4 v 1.2 h 0 c 0 -0.1 0.1 -0.2 0.3 -0.4 c 0.1 -0.2 0.3 -0.3 0.5 -0.5 s 0.5 -0.3 0.8 -0.4 c 0.3 -0.1 0.6 -0.2 1 -0.2 c 0.6 0 1.1 0.1 1.5 0.3 c 0.4 0.2 0.7 0.6 1 1 c 0.3 -0.5 0.6 -0.8 1.1 -1 c 0.5 -0.2 0.9 -0.3 1.4 -0.3 c 0.6 0 1.1 0.1 1.5 0.3 c 0.4 0.2 0.7 0.4 0.9 0.8 c 0.2 0.3 0.4 0.7 0.5 1.1 s 0.1 0.8 0.1 1.2 v 4.4 h -1.5 v -4.2 c 0 -0.3 0 -0.6 -0.1 -0.8 s -0.1 -0.5 -0.2 -0.7 c -0.1 -0.2 -0.3 -0.4 -0.5 -0.5 c -0.2 -0.1 -0.5 -0.2 -0.9 -0.2 c -0.7 0 -1.3 0.2 -1.6 0.6 c -0.3 0.4 -0.5 1 -0.5 1.6 v 4.1 h -1.5 v -3.9 c 0 -0.4 0 -0.7 -0.1 -1 c 0 -0.3 -0.1 -0.6 -0.2 -0.8 c -0.1 -0.2 -0.3 -0.4 -0.5 -0.5 c -0.2 -0.1 -0.5 -0.2 -0.9 -0.2 c -0.3 0 -0.5 0.1 -0.8 0.2 c -0.3 0.1 -0.5 0.3 -0.7 0.5 c -0.2 0.2 -0.3 0.5 -0.5 0.8 c -0.1 0.3 -0.2 0.7 -0.2 1.1 v 3.9 h -1.5 V 165.2 z"/>
	<path class="st0" d="M 464.2 165.2 h 1.5 v 1.1 h 0 c 0.3 -0.4 0.7 -0.7 1.2 -0.9 s 1 -0.3 1.6 -0.3 c 0.6 0 1.2 0.1 1.7 0.3 c 0.5 0.2 0.9 0.5 1.3 0.8 c 0.4 0.4 0.6 0.8 0.8 1.3 c 0.2 0.5 0.3 1 0.3 1.6 c 0 0.6 -0.1 1.1 -0.3 1.6 c -0.2 0.5 -0.5 0.9 -0.8 1.3 c -0.4 0.4 -0.8 0.6 -1.3 0.8 c -0.5 0.2 -1.1 0.3 -1.7 0.3 c -0.6 0 -1.1 -0.1 -1.6 -0.3 c -0.5 -0.2 -0.9 -0.5 -1.2 -0.9 h 0 v 5.6 h -1.5 V 165.2 z M 468.3 166.3 c -0.4 0 -0.8 0.1 -1.1 0.2 c -0.3 0.1 -0.6 0.3 -0.8 0.5 c -0.2 0.2 -0.4 0.5 -0.5 0.8 c -0.1 0.3 -0.2 0.7 -0.2 1.1 c 0 0.4 0.1 0.7 0.2 1.1 c 0.1 0.3 0.3 0.6 0.5 0.8 c 0.2 0.2 0.5 0.4 0.8 0.5 c 0.3 0.1 0.7 0.2 1.1 0.2 s 0.8 -0.1 1.1 -0.2 s 0.6 -0.3 0.8 -0.5 c 0.2 -0.2 0.4 -0.5 0.5 -0.8 c 0.1 -0.3 0.2 -0.7 0.2 -1.1 c 0 -0.4 -0.1 -0.7 -0.2 -1.1 c -0.1 -0.3 -0.3 -0.6 -0.5 -0.8 c -0.2 -0.2 -0.5 -0.4 -0.8 -0.5 S 468.8 166.3 468.3 166.3 z"/>
	<path class="st0" d="M 474.3 166.1 c 0.4 -0.4 0.9 -0.6 1.5 -0.8 c 0.6 -0.2 1.1 -0.3 1.7 -0.3 c 0.6 0 1.1 0.1 1.5 0.2 c 0.4 0.1 0.8 0.3 1 0.6 c 0.3 0.2 0.5 0.5 0.6 0.8 c 0.1 0.3 0.2 0.6 0.2 0.9 v 3.8 c 0 0.3 0 0.5 0 0.7 c 0 0.2 0 0.4 0.1 0.6 h -1.3 c 0 -0.4 -0.1 -0.8 -0.1 -1.1 h 0 c -0.3 0.5 -0.7 0.8 -1.2 1 c -0.5 0.2 -1 0.3 -1.6 0.3 c -0.4 0 -0.7 0 -1.1 -0.1 c -0.3 -0.1 -0.6 -0.2 -0.9 -0.4 c -0.3 -0.2 -0.5 -0.4 -0.6 -0.7 c -0.1 -0.3 -0.2 -0.6 -0.2 -1 c 0 -0.5 0.1 -0.9 0.3 -1.2 c 0.2 -0.3 0.5 -0.6 0.9 -0.8 c 0.4 -0.2 0.9 -0.4 1.4 -0.4 s 1.1 -0.1 1.7 -0.1 h 1.1 v -0.3 c 0 -0.2 0 -0.4 -0.1 -0.6 c -0.1 -0.2 -0.2 -0.4 -0.4 -0.5 c -0.2 -0.2 -0.4 -0.3 -0.6 -0.4 c -0.2 -0.1 -0.5 -0.1 -0.8 -0.1 c -0.3 0 -0.5 0 -0.8 0.1 c -0.2 0.1 -0.4 0.1 -0.6 0.2 c -0.2 0.1 -0.3 0.2 -0.5 0.3 c -0.1 0.1 -0.3 0.2 -0.4 0.3 L 474.3 166.1 z M 478.6 169.1 c -0.4 0 -0.7 0 -1.1 0.1 c -0.4 0 -0.7 0.1 -1 0.2 c -0.3 0.1 -0.6 0.3 -0.8 0.4 c -0.2 0.2 -0.3 0.4 -0.3 0.7 c 0 0.4 0.2 0.7 0.5 0.9 c 0.3 0.2 0.7 0.3 1.3 0.3 c 0.4 0 0.8 -0.1 1.1 -0.2 c 0.3 -0.1 0.5 -0.3 0.7 -0.5 c 0.2 -0.2 0.3 -0.4 0.4 -0.7 c 0.1 -0.3 0.1 -0.5 0.1 -0.8 v -0.5 H 478.6 z"/>
	<path class="st0" d="M 482.8 165.2 h 1.5 v 1.2 h 0 c 0.2 -0.4 0.5 -0.7 1 -1 c 0.5 -0.2 1 -0.4 1.6 -0.4 c 0.4 0 0.7 0.1 1.1 0.2 c 0.4 0.1 0.7 0.3 0.9 0.5 c 0.3 0.2 0.5 0.5 0.6 0.9 c 0.2 0.4 0.2 0.8 0.2 1.3 v 4.8 h -1.5 v -4.5 c 0 -0.3 -0.1 -0.6 -0.2 -0.9 c -0.1 -0.2 -0.2 -0.5 -0.4 -0.6 c -0.2 -0.2 -0.4 -0.3 -0.6 -0.3 c -0.2 -0.1 -0.4 -0.1 -0.7 -0.1 c -0.3 0 -0.6 0 -0.9 0.1 c -0.3 0.1 -0.5 0.2 -0.7 0.5 c -0.2 0.2 -0.4 0.5 -0.5 0.8 c -0.1 0.3 -0.2 0.7 -0.2 1.1 v 3.9 h -1.5 V 165.2 z"/>
	<path class="st0" d="M 491 165.2 h 1.8 l 2.4 5.9 h 0 l 2.3 -5.9 h 1.6 l -3.8 9.2 c -0.1 0.3 -0.3 0.6 -0.4 0.9 c -0.1 0.3 -0.3 0.5 -0.5 0.7 c -0.2 0.2 -0.4 0.3 -0.7 0.4 c -0.3 0.1 -0.6 0.2 -1 0.2 c -0.2 0 -0.5 0 -0.7 0 c -0.2 0 -0.5 -0.1 -0.7 -0.2 l 0.2 -1.3 c 0.3 0.1 0.6 0.2 0.9 0.2 c 0.2 0 0.4 0 0.6 -0.1 c 0.2 -0.1 0.3 -0.1 0.4 -0.3 c 0.1 -0.1 0.2 -0.2 0.3 -0.4 c 0.1 -0.1 0.2 -0.3 0.2 -0.5 l 0.5 -1.2 L 491 165.2 z"/>
</g>
<polygon class="st0" points="198,81 181.5,37.1 172.8,37.1 194.1,93 201.7,93 223.1,37.1 214.4,37.1"/>
<rect x="226.4" y="55.2" class="st0" width="7.8" height="37.8"/>
<path class="st0" d="M 226.9 41.2 c -1 0.9 -1.6 2.2 -1.6 3.6 c 0 1.4 0.5 2.7 1.6 3.6 c 1 0.9 2.1 1.4 3.4 1.4 s 2.4 -0.5 3.4 -1.4 c 1 -0.9 1.6 -2.2 1.6 -3.6 c 0 -1.4 -0.5 -2.7 -1.6 -3.6 C 231.6 39.4 228.9 39.4 226.9 41.2 z"/>
<path class="st0" d="M 272 59 c -1.2 -1.2 -2.6 -2.1 -4.1 -2.9 c -2.6 -1.3 -5.3 -1.9 -8 -1.9 c -2.9 0 -5.6 0.5 -8 1.5 c -2.4 1 -4.5 2.4 -6.2 4.2 c -1.7 1.8 -3 3.9 -4 6.3 c -0.9 2.4 -1.4 5 -1.4 7.8 c 0 2.8 0.5 5.4 1.4 7.8 c 0.9 2.4 2.3 4.5 4 6.3 c 1.7 1.8 3.8 3.2 6.2 4.2 c 2.4 1 5.1 1.5 8 1.5 c 2.7 0 5.4 -0.6 8 -1.9 c 1.5 -0.7 2.9 -1.7 4.1 -2.8 V 93 h 7.8 V 33.5 H 272 V 59 z M 269.1 64.9 c 1.1 1.1 1.9 2.5 2.5 4.1 c 0.6 1.6 0.9 3.3 0.9 5.1 c 0 1.8 -0.3 3.5 -0.9 5.1 c -0.6 1.6 -1.5 2.9 -2.5 4 c -1.1 1.1 -2.4 2 -3.9 2.7 c -1.5 0.6 -3.1 1 -4.9 1 c -1.9 0 -3.6 -0.3 -5.1 -1 c -1.5 -0.6 -2.7 -1.5 -3.7 -2.7 c -1 -1.1 -1.8 -2.5 -2.3 -4.1 c -0.5 -1.6 -0.8 -3.3 -0.8 -5.1 c 0 -1.8 0.3 -3.5 0.8 -5.1 c 0.5 -1.6 1.3 -2.9 2.3 -4.1 c 1 -1.1 2.2 -2 3.7 -2.7 c 1.5 -0.7 3.2 -1 5.1 -1 c 1.8 0 3.4 0.3 4.9 1 C 266.7 62.8 268 63.8 269.1 64.9 z"/>
<path class="st0" d="M 319.4 59.9 c -1.5 -1.7 -3.4 -3.1 -5.7 -4.1 c -2.3 -1 -4.9 -1.5 -7.8 -1.5 c -2.7 0 -5.2 0.5 -7.5 1.5 c -2.3 1 -4.3 2.4 -6.1 4.2 c -1.7 1.8 -3.1 3.9 -4 6.3 c -1 2.4 -1.4 5 -1.4 7.9 c 0 2.8 0.5 5.5 1.5 7.9 c 1 2.4 2.4 4.5 4.1 6.3 c 1.7 1.8 3.8 3.2 6.2 4.2 c 2.4 1 5 1.5 7.8 1.5 c 3.1 0 6 -0.6 8.7 -1.8 c 2.7 -1.2 5.2 -3.3 7.4 -6.1 l 0.8 -1.1 l -6.1 -4.8 l -0.8 1.3 c -0.9 1.4 -2.2 2.7 -4 3.8 c -1.7 1.1 -3.8 1.6 -6.2 1.6 c -1.6 0 -3.1 -0.3 -4.5 -0.9 c -1.4 -0.6 -2.6 -1.4 -3.6 -2.5 c -1 -1 -1.8 -2.2 -2.4 -3.6 c -0.4 -1 -0.7 -2 -0.8 -3.1 h 28.9 l 0.1 -1.2 c 0.1 -0.5 0.1 -1 0.1 -1.4 V 73 c 0 -2.5 -0.4 -5 -1.2 -7.2 C 322 63.6 320.9 61.6 319.4 59.9 z M 295 70 c 0.2 -0.8 0.4 -1.6 0.8 -2.4 c 0.6 -1.2 1.4 -2.3 2.4 -3.3 c 1 -1 2.1 -1.7 3.4 -2.3 c 1.3 -0.6 2.7 -0.8 4.2 -0.8 c 3.3 0 5.7 0.9 7.5 2.8 c 1.5 1.6 2.4 3.6 2.7 6 H 295 z"/>
<path class="st0" d="M 364.4 59.9 c -1.8 -1.8 -3.9 -3.2 -6.4 -4.2 c -2.5 -1 -5.2 -1.5 -8.1 -1.5 c -2.9 0 -5.6 0.5 -8 1.5 c -2.5 1 -4.6 2.4 -6.4 4.2 c -1.8 1.8 -3.2 3.9 -4.2 6.3 c -1 2.4 -1.5 5.1 -1.5 7.9 c 0 2.8 0.5 5.5 1.5 7.9 c 1 2.4 2.4 4.5 4.2 6.3 c 1.8 1.8 3.9 3.2 6.4 4.2 c 2.5 1 5.1 1.5 8 1.5 c 2.9 0 5.6 -0.5 8.1 -1.5 c 2.5 -1 4.6 -2.4 6.4 -4.2 c 1.8 -1.8 3.2 -3.9 4.2 -6.3 c 1 -2.4 1.5 -5.1 1.5 -7.9 c 0 -2.8 -0.5 -5.5 -1.5 -7.9 C 367.6 63.8 366.2 61.7 364.4 59.9 z M 362 74.1 c 0 1.8 -0.3 3.5 -0.9 5.1 c -0.6 1.6 -1.4 2.9 -2.4 4.1 c -1 1.1 -2.3 2 -3.8 2.7 c -1.5 0.6 -3.2 1 -5 1 c -1.9 0 -3.5 -0.3 -5 -1 c -1.4 -0.6 -2.7 -1.5 -3.7 -2.7 c -1 -1.1 -1.8 -2.5 -2.4 -4.1 c -0.6 -1.6 -0.9 -3.3 -0.9 -5.1 c 0 -1.8 0.3 -3.5 0.9 -5.1 c 0.6 -1.6 1.4 -2.9 2.4 -4.1 c 1 -1.1 2.3 -2.1 3.7 -2.7 c 1.4 -0.7 3.1 -1 5 -1 c 1.8 0 3.5 0.3 5 1 c 1.5 0.7 2.7 1.6 3.8 2.7 c 1 1.1 1.8 2.5 2.4 4.1 C 361.7 70.6 362 72.3 362 74.1 z"/>
<rect x="377" y="33.5" class="st0" width="7.8" height="59.5"/>
<path class="st0" d="M 426.3 59.9 c -1.8 -1.8 -3.9 -3.2 -6.4 -4.2 c -2.5 -1 -5.2 -1.5 -8.1 -1.5 c -2.9 0 -5.6 0.5 -8 1.5 c -2.5 1 -4.6 2.4 -6.4 4.2 c -1.8 1.8 -3.2 3.9 -4.2 6.3 c -1 2.4 -1.5 5.1 -1.5 7.9 c 0 2.8 0.5 5.5 1.5 7.9 c 1 2.4 2.4 4.5 4.2 6.3 c 1.8 1.8 3.9 3.2 6.4 4.2 c 2.5 1 5.1 1.5 8 1.5 c 2.9 0 5.6 -0.5 8.1 -1.5 c 2.5 -1 4.6 -2.4 6.4 -4.2 c 1.8 -1.8 3.2 -3.9 4.2 -6.3 c 1 -2.4 1.5 -5.1 1.5 -7.9 c 0 -2.8 -0.5 -5.5 -1.5 -7.9 C 429.5 63.8 428.1 61.7 426.3 59.9 z M 423.9 74.1 c 0 1.8 -0.3 3.5 -0.9 5.1 c -0.6 1.6 -1.4 2.9 -2.4 4.1 c -1 1.1 -2.3 2 -3.8 2.7 c -1.5 0.6 -3.2 1 -5 1 c -1.9 0 -3.5 -0.3 -5 -1 c -1.4 -0.6 -2.7 -1.5 -3.7 -2.7 c -1 -1.1 -1.8 -2.5 -2.4 -4.1 c -0.6 -1.6 -0.9 -3.3 -0.9 -5.1 c 0 -1.8 0.3 -3.5 0.9 -5.1 c 0.6 -1.6 1.4 -2.9 2.4 -4.1 c 1 -1.1 2.3 -2.1 3.7 -2.7 c 1.4 -0.7 3.1 -1 5 -1 c 1.8 0 3.5 0.3 5 1 c 1.5 0.7 2.7 1.6 3.8 2.7 c 1 1.1 1.8 2.5 2.4 4.1 C 423.6 70.6 423.9 72.3 423.9 74.1 z"/>
<path class="st0" d="M 469.3 59 c -1.2 -1.1 -2.5 -2 -4 -2.8 c -2.6 -1.3 -5.4 -1.9 -8.1 -1.9 c -2.9 0 -5.6 0.5 -8 1.5 c -2.4 1 -4.5 2.4 -6.2 4.2 c -1.7 1.8 -3 3.9 -4 6.2 c -0.9 2.4 -1.4 4.9 -1.4 7.6 c 0 2.7 0.5 5.3 1.4 7.6 c 0.9 2.4 2.3 4.4 4 6.1 c 1.7 1.7 3.8 3 6.2 4 c 2.4 1 5.1 1.4 8 1.4 c 2.7 0 5.5 -0.7 8.1 -1.9 c 1.5 -0.7 2.8 -1.6 4 -2.7 v 3 c 0 1.8 -0.2 3.4 -0.7 5 c -0.4 1.5 -1.1 2.8 -2.1 3.9 c -0.9 1.1 -2.2 2 -3.7 2.6 c -1.6 0.7 -3.6 1 -5.9 1 c -2.5 0 -4.9 -0.6 -7.1 -1.7 c -2.2 -1.2 -4 -2.6 -5.3 -4.2 l -1 -1.2 l -5.6 6 l 0.9 0.9 c 2.2 2.3 4.9 4.2 8 5.5 c 3.1 1.3 6.4 2 9.8 2 c 4.1 0 7.5 -0.7 10.1 -1.9 c 2.6 -1.3 4.7 -2.9 6.3 -4.9 c 1.5 -1.9 2.6 -4.1 3.2 -6.4 c 0.5 -2.2 0.8 -4.4 0.8 -6.4 V 55.2 h -7.8 V 59 z M 466.5 64.9 c 1.1 1.1 1.9 2.4 2.5 3.9 c 0.6 1.5 0.9 3.1 0.9 4.8 c 0 1.9 -0.3 3.6 -0.9 5.1 c -0.6 1.5 -1.5 2.8 -2.5 3.9 c -1.1 1.1 -2.4 1.9 -3.8 2.5 c -1.5 0.6 -3.1 0.9 -4.9 0.9 c -1.9 0 -3.6 -0.3 -5.1 -1 c -1.5 -0.6 -2.7 -1.5 -3.7 -2.6 c -1 -1.1 -1.8 -2.4 -2.3 -3.9 c -0.5 -1.5 -0.8 -3.1 -0.8 -4.8 s 0.3 -3.3 0.8 -4.8 c 0.5 -1.5 1.3 -2.8 2.3 -3.9 c 1 -1.1 2.3 -2 3.7 -2.7 c 1.5 -0.7 3.2 -1 5.1 -1 c 1.8 0 3.4 0.3 4.9 1 C 464.1 62.9 465.4 63.8 466.5 64.9 z"/>
<path class="st0" d="M 511.3 55.2 l -10.1 27.5 l -11.1 -27.5 h -8.6 l 15.6 36.4 l -2.7 6.9 c -0.7 1.8 -1.5 3.2 -2.4 4.2 c -0.7 0.8 -1.8 1.2 -3.2 1.2 c -1.1 0 -2.3 -0.2 -3.3 -0.5 l -1.6 -0.5 l -0.8 7.5 l 1.2 0.2 c 1.6 0.3 3.2 0.5 4.8 0.5 c 3.4 0 6.1 -1 8 -2.8 c 1.8 -1.8 3.2 -4.1 4.3 -7 l 18.2 -46.1 H 511.3 z"/>
<g>
	<path class="st0" d="M 508.7 104.6 c 0 -1 0.2 -1.9 0.6 -2.8 c 0.4 -0.9 0.9 -1.6 1.5 -2.3 c 0.6 -0.6 1.4 -1.1 2.3 -1.5 c 0.9 -0.4 1.8 -0.6 2.8 -0.6 c 1 0 1.9 0.2 2.8 0.6 c 0.9 0.4 1.6 0.9 2.3 1.5 c 0.6 0.6 1.2 1.4 1.5 2.3 c 0.4 0.9 0.6 1.8 0.6 2.8 c 0 1 -0.2 1.9 -0.6 2.8 c -0.4 0.9 -0.9 1.6 -1.5 2.2 c -0.7 0.6 -1.4 1.1 -2.3 1.5 c -0.9 0.4 -1.8 0.6 -2.8 0.6 c -1 0 -1.9 -0.2 -2.8 -0.6 c -0.9 -0.4 -1.6 -0.9 -2.3 -1.5 c -0.7 -0.6 -1.2 -1.4 -1.5 -2.2 C 508.9 106.5 508.7 105.6 508.7 104.6 z M 509.8 104.6 c 0 0.8 0.2 1.6 0.5 2.3 c 0.3 0.7 0.7 1.4 1.3 1.9 c 0.5 0.6 1.2 1 1.9 1.3 c 0.7 0.3 1.5 0.5 2.4 0.5 c 0.8 0 1.6 -0.2 2.4 -0.5 c 0.7 -0.3 1.4 -0.7 1.9 -1.3 c 0.5 -0.6 1 -1.2 1.3 -1.9 c 0.3 -0.7 0.5 -1.5 0.5 -2.3 c 0 -0.8 -0.2 -1.6 -0.5 -2.4 c -0.3 -0.7 -0.7 -1.4 -1.3 -1.9 c -0.5 -0.5 -1.2 -1 -1.9 -1.3 c -0.7 -0.3 -1.5 -0.5 -2.4 -0.5 c -0.8 0 -1.6 0.2 -2.4 0.5 c -0.7 0.3 -1.4 0.7 -1.9 1.3 c -0.5 0.5 -1 1.2 -1.3 1.9 C 510 103 509.8 103.8 509.8 104.6 z M 513 100.6 h 2.8 c 0.4 0 0.7 0 1.1 0.1 c 0.4 0.1 0.7 0.2 1 0.4 c 0.3 0.2 0.5 0.4 0.7 0.7 c 0.2 0.3 0.3 0.7 0.3 1.1 c 0 0.6 -0.2 1.1 -0.5 1.4 c -0.3 0.4 -0.8 0.6 -1.4 0.7 l 2.2 3.5 h -1.8 l -1.9 -3.4 h -1 v 3.4 H 513 V 100.6 z M 515.6 104.1 c 0.4 0 0.8 -0.1 1.2 -0.2 c 0.4 -0.2 0.6 -0.5 0.6 -1 c 0 -0.4 -0.2 -0.7 -0.5 -0.9 c -0.3 -0.1 -0.7 -0.2 -1.1 -0.2 h -1.3 v 2.3 H 515.6 z"/>
</g>
<g>
	<rect x="203.8" y="125.3" class="st1" width="2.2" height="20.5"/>
	<path class="st1" d="M 216.4 131.8 c -0.9 0 -1.7 0.3 -2.5 0.8 c -0.6 0.4 -1 0.8 -1.3 1.3 c 0 -0.1 0 -0.2 0 -0.3 c 0 -0.4 0 -0.8 -0.1 -1.2 l 0 -0.2 h -2.1 l 0 0.2 c 0 0.5 0.1 1 0.1 1.5 c 0 0.6 0 1 0 1.4 v 10.6 h 2.1 v -7 c 0 -0.9 0.1 -1.6 0.3 -2.2 c 0.2 -0.6 0.4 -1.1 0.8 -1.5 c 0.3 -0.4 0.7 -0.7 1.1 -0.9 c 0.4 -0.2 0.8 -0.3 1.2 -0.3 c 0.6 0 1 0.1 1.4 0.3 c 0.4 0.2 0.7 0.5 0.9 0.9 c 0.2 0.4 0.4 0.8 0.5 1.4 c 0.1 0.6 0.1 1.2 0.1 1.9 v 7.6 h 2.1 v -8.4 c 0 -1.7 -0.4 -3.1 -1.1 -4.1 C 219.1 132.3 217.9 131.8 216.4 131.8 z"/>
	<path class="st1" d="M 234.9 134 c -0.5 -0.6 -1 -1.1 -1.7 -1.5 c -0.8 -0.5 -1.7 -0.7 -2.6 -0.7 c -0.9 0 -1.8 0.2 -2.6 0.6 c -0.8 0.4 -1.4 0.9 -2 1.5 c -0.5 0.6 -1 1.4 -1.3 2.3 c -0.3 0.9 -0.4 1.8 -0.4 2.8 c 0 1 0.2 2 0.4 2.8 c 0.3 0.9 0.7 1.6 1.3 2.3 c 0.5 0.6 1.2 1.2 2 1.5 c 0.8 0.4 1.6 0.6 2.6 0.6 c 0.9 0 1.7 -0.2 2.6 -0.7 c 0.6 -0.4 1.2 -0.8 1.7 -1.5 v 1.8 h 2.1 v -21.9 h -2.1 V 134 z M 233.9 135.3 c 0.4 0.5 0.7 1 0.9 1.6 c 0.2 0.6 0.3 1.3 0.3 2 c 0 0.7 -0.1 1.4 -0.3 2 c -0.2 0.6 -0.5 1.2 -0.9 1.6 c -0.4 0.4 -0.8 0.8 -1.3 1.1 c -0.5 0.3 -1.1 0.4 -1.7 0.4 c -0.7 0 -1.3 -0.1 -1.8 -0.4 c -0.5 -0.3 -1 -0.6 -1.3 -1.1 c -0.4 -0.5 -0.6 -1 -0.8 -1.6 c -0.2 -0.6 -0.3 -1.3 -0.3 -2 s 0.1 -1.4 0.3 -2 c 0.2 -0.6 0.5 -1.2 0.8 -1.6 c 0.4 -0.5 0.8 -0.8 1.3 -1.1 c 0.5 -0.3 1.1 -0.4 1.8 -0.4 c 0.6 0 1.2 0.1 1.7 0.4 C 233.1 134.5 233.5 134.8 233.9 135.3 z"/>
	<path class="st1" d="M 251.9 144.1 c 0 -0.6 0 -1 0 -1.4 v -10.6 h -2.1 v 7 c 0 0.9 -0.1 1.6 -0.3 2.2 c -0.2 0.6 -0.4 1.1 -0.8 1.5 c -0.3 0.4 -0.7 0.7 -1.1 0.9 c -0.4 0.2 -0.8 0.3 -1.2 0.3 c -0.6 0 -1 -0.1 -1.4 -0.3 c -0.4 -0.2 -0.7 -0.5 -0.9 -0.9 c -0.2 -0.4 -0.4 -0.8 -0.5 -1.4 c -0.1 -0.5 -0.1 -1.2 -0.1 -1.9 v -7.6 h -2.1 v 8.4 c 0 1.7 0.4 3.1 1.1 4.1 c 0.8 1.1 2 1.6 3.5 1.6 c 0.9 0 1.7 -0.3 2.5 -0.8 c 0.6 -0.4 1 -0.8 1.3 -1.3 c 0 0.1 0 0.2 0 0.3 c 0 0.4 0 0.8 0.1 1.2 l 0 0.2 h 2.1 l 0 -0.2 C 252 145.2 252 144.6 251.9 144.1 z"/>
	<path class="st1" d="M 260.2 137.7 c -0.9 -0.2 -1.6 -0.5 -2 -0.8 c -0.4 -0.3 -0.6 -0.7 -0.6 -1.3 c 0 -0.3 0.1 -0.6 0.2 -0.8 c 0.1 -0.2 0.3 -0.4 0.5 -0.6 c 0.2 -0.2 0.4 -0.3 0.7 -0.3 c 0.3 -0.1 0.6 -0.1 0.8 -0.1 c 0.6 0 1.1 0.2 1.6 0.5 c 0.5 0.3 0.8 0.7 1.1 1.3 l 0.1 0.3 l 1.6 -1.4 l -0.1 -0.2 c -0.4 -0.8 -1 -1.4 -1.8 -1.9 c -1.3 -0.7 -2.8 -0.8 -4.1 -0.4 c -0.5 0.2 -1 0.4 -1.4 0.7 c -0.4 0.3 -0.7 0.8 -1 1.3 c -0.2 0.5 -0.4 1.1 -0.4 1.8 c 0 0.7 0.1 1.2 0.3 1.7 c 0.2 0.4 0.5 0.8 0.9 1.1 c 0.3 0.3 0.7 0.5 1.1 0.7 c 0.4 0.1 0.8 0.3 1.1 0.4 c 1.1 0.3 1.9 0.6 2.5 1 c 0.5 0.3 0.8 0.8 0.8 1.4 c 0 0.4 -0.1 0.7 -0.2 1 c -0.1 0.3 -0.3 0.5 -0.5 0.6 c -0.2 0.2 -0.5 0.3 -0.8 0.4 c -0.3 0.1 -0.6 0.1 -1 0.1 c -0.6 0 -1.2 -0.2 -1.8 -0.6 c -0.5 -0.4 -1 -0.8 -1.2 -1.4 l -0.1 -0.3 l -1.7 1.4 l 0.1 0.2 c 0.5 0.9 1.3 1.6 2.1 2 c 0.9 0.4 1.7 0.6 2.7 0.6 c 0.5 0 1.1 -0.1 1.6 -0.2 c 0.5 -0.1 1 -0.4 1.5 -0.8 s 0.8 -0.8 1.1 -1.4 c 0.3 -0.5 0.4 -1.2 0.4 -2 c 0 -1.1 -0.4 -2 -1.1 -2.6 C 262.7 138.6 261.6 138.1 260.2 137.7 z"/>
	<path class="st1" d="M 273 143.5 c -0.2 0.1 -0.4 0.2 -0.7 0.3 c -0.5 0.1 -0.9 0.1 -1.3 0 c -0.2 -0.1 -0.3 -0.2 -0.5 -0.3 c -0.1 -0.2 -0.2 -0.4 -0.3 -0.7 c -0.1 -0.3 -0.1 -0.7 -0.1 -1.2 v -7.5 h 3.3 v -2.1 h -3.3 v -3.7 H 268 v 3.7 h -2.4 v 2.1 h 2.4 v 8.1 c 0 0.8 0.1 1.4 0.3 1.9 c 0.2 0.5 0.5 0.9 0.8 1.2 c 0.3 0.3 0.7 0.5 1.1 0.6 c 0.4 0.1 0.7 0.1 1.1 0.1 c 0.4 0 0.8 0 1.1 -0.1 c 0.3 -0.1 0.7 -0.2 1 -0.3 l 0.1 -0.1 l -0.1 -2.2 L 273 143.5 z"/>
	<path class="st1" d="M 282.2 131.8 c -0.2 0 -0.4 0 -0.6 0 c -0.9 0 -1.7 0.3 -2.4 0.8 c -0.5 0.4 -0.9 0.8 -1.2 1.3 c 0 -0.1 0 -0.2 0 -0.3 c 0 -0.4 0 -0.8 -0.1 -1.2 l 0 -0.2 h -2.1 l 0 0.2 c 0 0.5 0.1 1 0.1 1.5 c 0 0.6 0 1 0 1.4 v 10.6 h 2.1 v -7 c 0 -0.9 0.1 -1.6 0.3 -2.2 c 0.2 -0.6 0.4 -1.1 0.7 -1.5 c 0.3 -0.4 0.6 -0.7 1 -0.8 c 0.6 -0.3 1.2 -0.3 1.9 -0.2 c 0.2 0 0.4 0.1 0.5 0.1 l 0.3 0.1 l 0.3 -2.3 l -0.2 -0.1 C 282.6 131.9 282.4 131.8 282.2 131.8 z"/>
	<rect x="285.3" y="132.1" class="st1" width="2.1" height="13.7"/>
	<path class="st1" d="M 285.4 126.1 c -0.3 0.3 -0.4 0.7 -0.4 1.1 c 0 0.5 0.1 0.8 0.4 1.1 c 0.3 0.3 0.6 0.5 1 0.5 c 0.4 0 0.7 -0.2 1 -0.5 c 0.3 -0.3 0.4 -0.7 0.4 -1.1 c 0 -0.5 -0.1 -0.8 -0.4 -1.1 C 286.8 125.5 286 125.5 285.4 126.1 z"/>
	<path class="st1" d="M 301.3 144.2 c 0 -0.5 0 -1.1 0 -1.6 v -5.8 c 0 -0.8 -0.1 -1.6 -0.4 -2.2 c -0.2 -0.6 -0.6 -1.2 -1 -1.6 c -0.4 -0.4 -0.9 -0.7 -1.5 -0.9 c -0.6 -0.2 -1.2 -0.3 -1.8 -0.3 c -1 0 -1.9 0.2 -2.8 0.6 c -0.8 0.4 -1.5 0.8 -2 1.4 l -0.1 0.1 l 1.2 1.6 l 0.2 -0.2 c 0.4 -0.4 0.9 -0.8 1.4 -1.1 c 0.6 -0.3 1.2 -0.4 1.8 -0.4 c 0.9 0 1.7 0.3 2.1 0.8 c 0.5 0.5 0.7 1.3 0.7 2.4 v 0.2 c -1 0 -1.9 0 -2.9 0.1 c -1 0.1 -1.9 0.3 -2.7 0.6 c -0.8 0.3 -1.4 0.8 -1.9 1.4 c -0.5 0.6 -0.7 1.5 -0.7 2.6 c 0 0.8 0.1 1.4 0.4 2 c 0.3 0.5 0.6 1 1 1.3 c 0.4 0.3 0.9 0.6 1.4 0.7 c 0.5 0.1 1 0.2 1.4 0.2 c 1 0 1.8 -0.2 2.5 -0.6 c 0.6 -0.3 1.1 -0.8 1.5 -1.5 c 0 0.2 0 0.3 0 0.5 c 0 0.4 0.1 0.7 0.1 1.1 l 0 0.2 h 2 l 0 -0.3 C 301.3 145.2 301.3 144.7 301.3 144.2 z M 299.2 139.2 v 0.8 c 0 0.6 -0.1 1.1 -0.2 1.6 c -0.2 0.5 -0.4 1 -0.7 1.3 c -0.3 0.4 -0.7 0.7 -1.1 0.9 c -0.7 0.3 -1.6 0.4 -2.4 0.2 c -0.3 -0.1 -0.6 -0.2 -0.8 -0.4 c -0.2 -0.2 -0.4 -0.4 -0.6 -0.7 c -0.1 -0.3 -0.2 -0.7 -0.2 -1.1 c 0 -0.6 0.2 -1 0.5 -1.4 c 0.3 -0.4 0.8 -0.6 1.3 -0.8 c 0.6 -0.2 1.2 -0.3 1.9 -0.4 c 0.7 -0.1 1.4 -0.1 2.1 -0.1 H 299.2 z"/>
	<rect x="305.5" y="123.9" class="st1" width="2.1" height="21.9"/>
	<rect x="311.1" y="137.7" class="st1" width="6" height="2.1"/>
	<path class="st1" d="M 329.4 137.1 h 4.1 v 5.8 c -0.5 0.3 -1.1 0.6 -1.9 0.8 c -0.8 0.2 -1.7 0.4 -2.7 0.4 c -1.1 0 -2.1 -0.2 -2.9 -0.7 c -0.9 -0.5 -1.6 -1.1 -2.2 -1.8 c -0.6 -0.8 -1.1 -1.7 -1.4 -2.7 c -0.3 -1 -0.5 -2.1 -0.5 -3.3 c 0 -1.1 0.2 -2.2 0.5 -3.3 c 0.3 -1 0.8 -1.9 1.4 -2.7 c 0.6 -0.8 1.4 -1.4 2.2 -1.9 c 0.9 -0.5 1.9 -0.7 2.9 -0.7 c 1.1 0 2 0.2 2.8 0.6 c 0.8 0.4 1.5 0.9 2.1 1.7 l 0.2 0.2 l 1.5 -1.8 l -0.1 -0.1 c -0.8 -0.9 -1.7 -1.6 -2.8 -2.1 c -1.1 -0.5 -2.3 -0.7 -3.8 -0.7 c -1.3 0 -2.6 0.3 -3.7 0.8 c -1.1 0.5 -2.1 1.3 -3 2.3 c -0.8 1 -1.5 2.1 -2 3.4 c -0.5 1.3 -0.7 2.8 -0.7 4.3 c 0 1.6 0.2 3 0.7 4.3 c 0.5 1.3 1.1 2.5 1.9 3.4 c 0.8 1 1.8 1.7 3 2.3 c 1.2 0.5 2.4 0.8 3.8 0.8 c 1.2 0 2.4 -0.2 3.5 -0.5 c 1.1 -0.3 2.2 -0.8 3.2 -1.5 l 0.1 -0.1 v -9.4 h -6.3 V 137.1 z"/>
	<path class="st1" d="M 346.4 131.8 c -0.2 0 -0.4 0 -0.6 0 c -0.9 0 -1.7 0.3 -2.4 0.8 c -0.5 0.4 -0.9 0.8 -1.2 1.3 c 0 -0.1 0 -0.2 0 -0.3 c 0 -0.4 0 -0.8 -0.1 -1.2 l 0 -0.2 H 340 l 0 0.2 c 0 0.5 0.1 1 0.1 1.5 c 0 0.6 0 1 0 1.4 v 10.6 h 2.1 v -7 c 0 -0.9 0.1 -1.6 0.3 -2.2 c 0.2 -0.6 0.4 -1.1 0.7 -1.5 c 0.3 -0.4 0.6 -0.7 1 -0.8 c 0.6 -0.3 1.2 -0.3 1.9 -0.2 c 0.2 0 0.4 0.1 0.5 0.1 l 0.3 0.1 l 0.3 -2.3 l -0.2 -0.1 C 346.7 131.9 346.6 131.8 346.4 131.8 z"/>
	<path class="st1" d="M 358.6 144.2 c 0 -0.5 0 -1.1 0 -1.6 v -5.8 c 0 -0.8 -0.1 -1.6 -0.4 -2.2 c -0.2 -0.6 -0.6 -1.2 -1 -1.6 c -0.4 -0.4 -0.9 -0.7 -1.5 -0.9 c -0.6 -0.2 -1.2 -0.3 -1.8 -0.3 c -1 0 -1.9 0.2 -2.8 0.6 c -0.8 0.4 -1.5 0.8 -2 1.4 l -0.1 0.1 l 1.2 1.6 l 0.2 -0.2 c 0.4 -0.4 0.9 -0.8 1.4 -1.1 c 0.6 -0.3 1.2 -0.4 1.8 -0.4 c 0.9 0 1.7 0.3 2.1 0.8 c 0.5 0.5 0.7 1.3 0.7 2.4 v 0.2 c -1 0 -1.9 0 -2.9 0.1 c -1 0.1 -1.9 0.3 -2.7 0.6 c -0.8 0.3 -1.4 0.8 -1.9 1.4 c -0.5 0.6 -0.7 1.5 -0.7 2.6 c 0 0.8 0.1 1.4 0.4 2 c 0.3 0.5 0.6 1 1 1.3 c 0.4 0.3 0.9 0.6 1.4 0.7 c 0.5 0.1 1 0.2 1.4 0.2 c 1 0 1.8 -0.2 2.5 -0.6 c 0.6 -0.3 1.1 -0.8 1.5 -1.5 c 0 0.2 0 0.3 0 0.5 c 0 0.4 0.1 0.7 0.1 1.1 l 0 0.2 h 2 l 0 -0.3 C 358.6 145.2 358.6 144.8 358.6 144.2 z M 356.5 139.2 v 0.8 c 0 0.6 -0.1 1.1 -0.2 1.6 c -0.2 0.5 -0.4 1 -0.7 1.3 c -0.3 0.4 -0.7 0.7 -1.1 0.9 c -0.7 0.3 -1.6 0.4 -2.4 0.2 c -0.3 -0.1 -0.6 -0.2 -0.8 -0.4 c -0.2 -0.2 -0.4 -0.4 -0.6 -0.7 c -0.1 -0.3 -0.2 -0.7 -0.2 -1.1 c 0 -0.6 0.2 -1 0.5 -1.4 c 0.3 -0.4 0.8 -0.6 1.3 -0.8 c 0.6 -0.2 1.2 -0.3 1.9 -0.4 c 0.7 -0.1 1.4 -0.1 2.1 -0.1 H 356.5 z"/>
	<path class="st1" d="M 372.4 134 c -0.5 -0.6 -1 -1.1 -1.7 -1.5 c -0.8 -0.5 -1.7 -0.7 -2.6 -0.7 c -0.9 0 -1.8 0.2 -2.6 0.6 c -0.8 0.4 -1.4 0.9 -2 1.5 c -0.5 0.6 -1 1.4 -1.3 2.3 c -0.3 0.9 -0.4 1.8 -0.4 2.8 c 0 1 0.2 2 0.4 2.8 c 0.3 0.9 0.7 1.6 1.3 2.3 c 0.5 0.6 1.2 1.2 2 1.5 c 0.8 0.4 1.6 0.6 2.6 0.6 c 0.9 0 1.7 -0.2 2.6 -0.7 c 0.6 -0.4 1.2 -0.8 1.7 -1.5 v 1.8 h 2.1 v -21.9 h -2.1 V 134 z M 371.4 135.3 c 0.4 0.5 0.7 1 0.9 1.6 c 0.2 0.6 0.3 1.3 0.3 2 c 0 0.7 -0.1 1.4 -0.3 2 c -0.2 0.6 -0.5 1.2 -0.9 1.6 c -0.4 0.4 -0.8 0.8 -1.3 1.1 c -0.5 0.3 -1.1 0.4 -1.7 0.4 c -0.7 0 -1.3 -0.1 -1.8 -0.4 c -0.5 -0.3 -1 -0.6 -1.3 -1.1 c -0.4 -0.5 -0.6 -1 -0.8 -1.6 c -0.2 -0.6 -0.3 -1.3 -0.3 -2 c 0 -0.7 0.1 -1.4 0.3 -2 c 0.2 -0.6 0.5 -1.2 0.8 -1.6 c 0.3 -0.5 0.8 -0.8 1.3 -1.1 c 0.5 -0.3 1.1 -0.4 1.8 -0.4 c 0.6 0 1.2 0.1 1.7 0.4 C 370.6 134.5 371 134.8 371.4 135.3 z"/>
	<path class="st1" d="M 388.5 133.8 c -0.5 -0.6 -1.1 -1.1 -1.8 -1.5 c -0.7 -0.4 -1.6 -0.5 -2.5 -0.5 c -0.9 0 -1.7 0.2 -2.4 0.5 c -0.7 0.4 -1.4 0.9 -1.9 1.5 c -0.5 0.6 -1 1.4 -1.3 2.3 c -0.3 0.9 -0.5 1.8 -0.5 2.9 c 0 1 0.2 2 0.5 2.9 c 0.3 0.9 0.7 1.6 1.3 2.3 c 0.5 0.6 1.2 1.2 2 1.5 c 0.8 0.4 1.6 0.5 2.5 0.5 c 1 0 1.9 -0.2 2.8 -0.7 c 0.9 -0.5 1.7 -1.2 2.4 -2.2 l 0.1 -0.2 l -1.6 -1.5 l -0.1 0.2 c -0.3 0.6 -0.8 1.1 -1.4 1.5 c -0.6 0.4 -1.3 0.7 -2.1 0.7 c -0.6 0 -1.1 -0.1 -1.6 -0.4 c -0.5 -0.2 -0.9 -0.6 -1.3 -1 c -0.4 -0.4 -0.6 -0.9 -0.9 -1.5 c -0.2 -0.5 -0.3 -1 -0.3 -1.6 h 9.6 l 0 -0.2 c 0 -0.2 0 -0.3 0 -0.5 v -0.4 c 0 -0.9 -0.1 -1.8 -0.4 -2.6 C 389.4 135.1 389 134.4 388.5 133.8 z M 380.4 137.7 c 0 -0.5 0.2 -0.9 0.3 -1.3 c 0.2 -0.5 0.5 -0.9 0.8 -1.3 c 0.3 -0.4 0.7 -0.7 1.2 -0.9 c 0.4 -0.2 0.9 -0.3 1.5 -0.3 c 1.1 0 2 0.4 2.6 1.2 c 0.6 0.7 0.9 1.7 1 2.7 H 380.4 z"/>
	<path class="st1" d="M 413.7 141.2 c -0.6 1 -1.3 1.7 -2.2 2.2 c -0.9 0.5 -1.8 0.7 -2.8 0.7 c -1.1 0 -2.1 -0.2 -2.9 -0.7 c -0.9 -0.5 -1.6 -1.1 -2.2 -1.9 c -0.6 -0.8 -1.1 -1.7 -1.4 -2.7 c -0.3 -1 -0.5 -2.1 -0.5 -3.3 c 0 -1.1 0.2 -2.2 0.5 -3.3 c 0.3 -1 0.8 -1.9 1.4 -2.7 c 0.6 -0.8 1.4 -1.4 2.2 -1.9 c 0.9 -0.5 1.9 -0.7 3 -0.7 c 0.5 0 1 0.1 1.5 0.2 c 0.5 0.1 0.9 0.3 1.3 0.6 c 0.4 0.2 0.7 0.5 1 0.8 c 0.3 0.3 0.5 0.6 0.7 0.9 l 0.1 0.2 l 1.8 -1.5 l -0.1 -0.2 c -0.3 -0.5 -0.7 -1 -1.2 -1.4 c -0.5 -0.4 -1 -0.7 -1.5 -1 c -0.6 -0.3 -1.2 -0.5 -1.8 -0.7 c -0.6 -0.2 -1.3 -0.2 -2 -0.2 c -1.3 0 -2.6 0.3 -3.7 0.8 c -1.1 0.5 -2.1 1.3 -3 2.3 c -0.8 1 -1.5 2.1 -2 3.4 c -0.5 1.3 -0.7 2.8 -0.7 4.3 c 0 1.6 0.2 3 0.7 4.3 c 0.5 1.3 1.1 2.5 1.9 3.4 c 0.8 1 1.8 1.7 3 2.3 c 1.2 0.5 2.4 0.8 3.8 0.8 c 0.8 0 1.6 -0.1 2.3 -0.3 c 0.7 -0.2 1.3 -0.5 1.9 -0.8 c 0.6 -0.4 1.1 -0.8 1.5 -1.2 c 0.4 -0.5 0.8 -1 1.1 -1.5 l 0.1 -0.2 l -1.7 -1.3 L 413.7 141.2 z"/>
	<path class="st1" d="M 427.3 144.2 c 0 -0.5 0 -1.1 0 -1.6 v -5.8 c 0 -0.8 -0.1 -1.6 -0.4 -2.2 c -0.2 -0.6 -0.6 -1.2 -1 -1.6 c -0.4 -0.4 -0.9 -0.7 -1.5 -0.9 c -0.6 -0.2 -1.2 -0.3 -1.8 -0.3 c -1 0 -2 0.2 -2.8 0.6 c -0.8 0.4 -1.5 0.8 -2 1.4 l -0.1 0.1 l 1.2 1.6 l 0.2 -0.2 c 0.4 -0.4 0.9 -0.8 1.4 -1.1 c 0.6 -0.3 1.2 -0.4 1.8 -0.4 c 0.9 0 1.7 0.3 2.1 0.8 c 0.5 0.5 0.7 1.3 0.7 2.4 v 0.2 c -1 0 -1.9 0 -2.9 0.1 c -1 0.1 -1.9 0.3 -2.7 0.6 c -0.8 0.3 -1.4 0.8 -1.9 1.4 c -0.5 0.6 -0.7 1.5 -0.7 2.6 c 0 0.8 0.1 1.4 0.4 2 c 0.3 0.5 0.6 1 1 1.3 c 0.4 0.3 0.9 0.6 1.4 0.7 c 0.5 0.1 1 0.2 1.4 0.2 c 1 0 1.8 -0.2 2.5 -0.6 c 0.6 -0.3 1.1 -0.8 1.5 -1.5 c 0 0.2 0 0.3 0 0.5 c 0 0.4 0.1 0.7 0.1 1.1 l 0 0.2 h 2 l 0 -0.3 C 427.4 145.2 427.4 144.8 427.3 144.2 z M 425.3 139.2 v 0.8 c 0 0.6 -0.1 1.1 -0.2 1.6 c -0.2 0.5 -0.4 1 -0.7 1.3 c -0.3 0.4 -0.7 0.7 -1.1 0.9 c -0.7 0.3 -1.6 0.4 -2.4 0.2 c -0.3 -0.1 -0.6 -0.2 -0.8 -0.4 c -0.2 -0.2 -0.4 -0.4 -0.6 -0.7 c -0.1 -0.3 -0.2 -0.7 -0.2 -1.1 c 0 -0.6 0.2 -1 0.5 -1.4 c 0.3 -0.4 0.8 -0.6 1.3 -0.8 c 0.6 -0.2 1.2 -0.3 1.9 -0.4 c 0.7 -0.1 1.4 -0.1 2.1 -0.1 H 425.3 z"/>
	<path class="st1" d="M 444.9 131.8 c -1 0 -1.9 0.3 -2.6 0.8 c -0.6 0.4 -1.1 1 -1.5 1.7 c -0.2 -0.4 -0.3 -0.7 -0.6 -1 c -0.3 -0.4 -0.6 -0.7 -0.9 -0.9 c -0.3 -0.2 -0.7 -0.4 -1.1 -0.5 c -1.3 -0.3 -2.5 0 -3.5 0.6 c -0.5 0.4 -0.9 0.8 -1.2 1.3 c 0 -0.1 0 -0.2 0 -0.3 c 0 -0.4 0 -0.8 -0.1 -1.2 l 0 -0.2 h -2.1 l 0 0.2 c 0 0.5 0.1 1 0.1 1.5 c 0 0.6 0 1 0 1.4 v 10.6 h 2.1 v -7 c 0 -0.9 0.1 -1.6 0.3 -2.2 c 0.2 -0.6 0.4 -1.1 0.7 -1.5 c 0.3 -0.4 0.6 -0.7 1 -0.9 c 0.4 -0.2 0.7 -0.3 1.1 -0.3 c 0.5 0 1 0.1 1.3 0.3 c 0.3 0.2 0.6 0.4 0.8 0.8 c 0.2 0.3 0.3 0.8 0.4 1.3 c 0.1 0.5 0.1 1.1 0.1 1.7 v 8 h 2.1 v -7.3 c 0 -0.6 0.1 -1.2 0.2 -1.8 c 0.1 -0.6 0.3 -1.1 0.5 -1.5 c 0.2 -0.4 0.6 -0.8 0.9 -1 c 0.4 -0.3 0.9 -0.4 1.4 -0.4 c 1 0 1.7 0.4 2.1 1.2 c 0.4 0.8 0.7 1.9 0.7 3.3 v 7.6 h 2.1 v -8.4 c 0 -1.7 -0.4 -3.1 -1.1 -4.1 C 447.6 132.3 446.5 131.8 444.9 131.8 z"/>
	<path class="st1" d="M 463.4 133.8 c -0.5 -0.6 -1.1 -1.1 -1.8 -1.5 c -0.7 -0.4 -1.6 -0.5 -2.5 -0.5 c -0.9 0 -1.7 0.2 -2.4 0.5 c -0.7 0.4 -1.4 0.9 -1.9 1.5 c -0.5 0.6 -1 1.4 -1.3 2.3 c -0.3 0.9 -0.5 1.8 -0.5 2.9 c 0 1 0.2 2 0.5 2.9 c 0.3 0.9 0.7 1.6 1.3 2.3 c 0.5 0.6 1.2 1.2 2 1.5 c 0.8 0.4 1.6 0.5 2.5 0.5 c 1 0 1.9 -0.2 2.8 -0.7 c 0.9 -0.5 1.7 -1.2 2.4 -2.2 l 0.1 -0.2 l -1.6 -1.5 l -0.1 0.2 c -0.3 0.6 -0.8 1.1 -1.4 1.5 c -0.6 0.4 -1.3 0.7 -2.1 0.7 c -0.6 0 -1.1 -0.1 -1.6 -0.4 c -0.5 -0.2 -0.9 -0.6 -1.3 -1 c -0.4 -0.4 -0.6 -0.9 -0.9 -1.5 c -0.2 -0.5 -0.3 -1 -0.3 -1.6 h 9.6 l 0 -0.2 c 0 -0.2 0 -0.3 0 -0.5 v -0.4 c 0 -0.9 -0.1 -1.8 -0.4 -2.6 C 464.3 135.1 463.9 134.4 463.4 133.8 z M 455.3 137.7 c 0 -0.5 0.2 -0.9 0.3 -1.3 c 0.2 -0.5 0.5 -0.9 0.8 -1.3 c 0.3 -0.4 0.7 -0.7 1.2 -0.9 c 0.4 -0.2 0.9 -0.3 1.5 -0.3 c 1.1 0 2 0.4 2.6 1.2 c 0.6 0.7 0.9 1.7 1 2.7 H 455.3 z"/>
	<path class="st1" d="M 474.7 131.8 c -0.2 0 -0.4 0 -0.6 0 c -0.9 0 -1.7 0.3 -2.4 0.8 c -0.5 0.4 -0.9 0.8 -1.2 1.3 c 0 -0.1 0 -0.2 0 -0.3 c 0 -0.4 0 -0.8 -0.1 -1.2 l 0 -0.2 h -2.1 l 0 0.2 c 0 0.5 0.1 1 0.1 1.5 c 0 0.6 0 1 0 1.4 v 10.6 h 2.1 v -7 c 0 -0.9 0.1 -1.6 0.3 -2.2 c 0.2 -0.6 0.4 -1.1 0.7 -1.5 c 0.3 -0.4 0.6 -0.7 1 -0.8 c 0.6 -0.3 1.2 -0.3 1.9 -0.2 c 0.2 0 0.4 0.1 0.5 0.1 l 0.3 0.1 l 0.3 -2.3 l -0.2 -0.1 C 475 131.9 474.8 131.8 474.7 131.8 z"/>
	<path class="st1" d="M 486.9 144.2 c 0 -0.5 0 -1.1 0 -1.6 v -5.8 c 0 -0.8 -0.1 -1.6 -0.4 -2.2 c -0.2 -0.6 -0.6 -1.2 -1 -1.6 c -0.4 -0.4 -0.9 -0.7 -1.5 -0.9 c -0.6 -0.2 -1.2 -0.3 -1.8 -0.3 c -1 0 -1.9 0.2 -2.8 0.6 c -0.8 0.4 -1.5 0.8 -2 1.4 l -0.1 0.1 l 1.2 1.6 l 0.2 -0.2 c 0.4 -0.4 0.9 -0.8 1.4 -1.1 c 0.6 -0.3 1.2 -0.4 1.8 -0.4 c 0.9 0 1.7 0.3 2.1 0.8 c 0.5 0.5 0.7 1.3 0.7 2.4 v 0.2 c -1 0 -1.9 0 -2.9 0.1 c -1 0.1 -1.9 0.3 -2.7 0.6 c -0.8 0.3 -1.4 0.8 -1.9 1.4 c -0.5 0.6 -0.7 1.5 -0.7 2.6 c 0 0.8 0.1 1.4 0.4 2 c 0.3 0.5 0.6 1 1 1.3 c 0.4 0.3 0.9 0.6 1.4 0.7 c 0.5 0.1 1 0.2 1.4 0.2 c 1 0 1.8 -0.2 2.5 -0.6 c 0.6 -0.3 1.1 -0.8 1.5 -1.5 c 0 0.2 0 0.3 0 0.5 c 0 0.4 0.1 0.7 0.1 1.1 l 0 0.2 h 2 l 0 -0.3 C 486.9 145.2 486.9 144.8 486.9 144.2 z M 484.8 139.2 v 0.8 c 0 0.6 -0.1 1.1 -0.2 1.6 c -0.2 0.5 -0.4 1 -0.7 1.3 c -0.3 0.4 -0.7 0.7 -1.1 0.9 c -0.7 0.3 -1.6 0.4 -2.4 0.2 c -0.3 -0.1 -0.6 -0.2 -0.8 -0.4 c -0.2 -0.2 -0.4 -0.4 -0.6 -0.7 c -0.1 -0.3 -0.2 -0.7 -0.2 -1.1 c 0 -0.6 0.2 -1 0.5 -1.4 c 0.3 -0.4 0.8 -0.6 1.3 -0.8 c 0.6 -0.2 1.2 -0.3 1.9 -0.4 c 0.7 -0.1 1.4 -0.1 2.1 -0.1 H 484.8 z"/>
	<path class="st1" d="M 498.2 139.2 c -0.7 -0.6 -1.7 -1.1 -3.1 -1.5 c -0.9 -0.2 -1.6 -0.5 -2 -0.8 c -0.4 -0.3 -0.6 -0.7 -0.6 -1.3 c 0 -0.3 0.1 -0.6 0.2 -0.8 c 0.1 -0.2 0.3 -0.4 0.5 -0.6 c 0.2 -0.2 0.4 -0.3 0.7 -0.3 c 0.3 -0.1 0.6 -0.1 0.8 -0.1 c 0.6 0 1.1 0.2 1.6 0.5 c 0.5 0.3 0.8 0.7 1.1 1.3 l 0.1 0.3 l 1.6 -1.4 l -0.1 -0.2 c -0.4 -0.8 -1 -1.4 -1.8 -1.9 c -1.3 -0.7 -2.8 -0.8 -4.1 -0.4 c -0.5 0.2 -1 0.4 -1.4 0.7 c -0.4 0.3 -0.7 0.8 -1 1.3 c -0.2 0.5 -0.4 1.1 -0.4 1.8 c 0 0.7 0.1 1.2 0.3 1.7 c 0.2 0.4 0.5 0.8 0.9 1.1 c 0.3 0.3 0.7 0.5 1.1 0.7 c 0.4 0.1 0.8 0.3 1.1 0.4 c 1.1 0.3 1.9 0.6 2.5 1 c 0.5 0.3 0.8 0.8 0.8 1.4 c 0 0.4 -0.1 0.7 -0.2 1 c -0.1 0.3 -0.3 0.5 -0.5 0.6 c -0.2 0.2 -0.5 0.3 -0.8 0.4 c -0.3 0.1 -0.6 0.1 -1 0.1 c -0.6 0 -1.2 -0.2 -1.8 -0.6 c -0.5 -0.4 -1 -0.8 -1.2 -1.4 l -0.1 -0.3 l -1.7 1.4 l 0.1 0.2 c 0.5 0.9 1.3 1.6 2.1 2 c 0.9 0.4 1.7 0.6 2.7 0.6 c 0.5 0 1.1 -0.1 1.6 -0.2 c 0.5 -0.1 1 -0.4 1.5 -0.8 c 0.4 -0.3 0.8 -0.8 1.1 -1.4 c 0.3 -0.5 0.4 -1.2 0.4 -2 C 499.2 140.7 498.9 139.9 498.2 139.2 z"/>
</g>
<g>
	<path class="st2" d="M 100.1 67.7 c -6.1 0 -11 10 -11 22.3 s 4.9 23.7 11 23.7"/>
	<g>
		<path class="st2" d="M 123.1 90.9 c 0 -6.1 -10 -11 -22.3 -11 s -23.7 4.9 -23.7 11"/>
		<path class="st2" d="M 123.1 90.8 c 0 6.1 -10 11.1 -22.3 11.1 s -23.7 -5 -23.7 -11.1"/>
	</g>
	<circle class="st2" cx="100.1" cy="90.7" r="23"/>
	<path class="st2" d="M 100.1 67.7 c 6.1 0 11.1 10 11.1 22.3 s -5 23.7 -11.1 23.7"/>
</g>
<path class="st1" d="M 139.5 36.7 l -78.8 0 c -7.1 0 -12.9 5.9 -12.9 13.1 v 31.3 h 19.1 c 3.4 -15.2 17 -25.3 33.2 -25.3 s 29.8 10.1 33.2 25.3 h 19.1 V 49.8 C 152.5 42.6 146.6 36.7 139.5 36.7 z"/>
<path class="st0" d="M 100.1 125.6 c -16.6 0 -30.5 -10.6 -33.4 -26.3 H 47.8 v 32.3 c 0 7.2 5.8 13.1 12.9 13.1 l 78.8 0 c 7.1 0 12.9 -5.9 12.9 -13.1 V 99.3 h -18.9 C 130.6 115 116.8 125.6 100.1 125.6 z"/>
</svg>
